<?xml version="1.0" encoding="iso-8859-1"?>
<!-- Generator: Adobe Illustrator 19.0.0, SVG Export Plug-In . SVG Version: 6.00 Build 0)  -->
<svg version="1.1" id="Capa_1" xmlns="http://www.w3.org/2000/svg" xmlns:xlink="http://www.w3.org/1999/xlink" x="0px" y="0px"
	 viewBox="0 0 512 512" style="enable-background:new 0 0 512 512;" xml:space="preserve">
<path style="fill:#FF1A56;" d="M377,0c-65.7,0-103.001,49.501-121,86.1C238.001,49.501,201.7,0,136,0C58.9,0,0,66.899,0,156
	c0,83.099,55.901,130.7,138.999,199.401c31.8,26.1,67.5,55.8,106.8,92.399C248.5,450.801,252.4,452,256,452s7.5-1.199,10.201-4.2
	c39.3-36.599,76-66.299,107.8-92.399C457.099,286.7,512,239.099,512,156C512,66.899,454.1,0,377,0z"/>
<path style="fill:#D81E46;" d="M512,156c0,83.099-54.901,130.699-137.999,199.401c-31.8,26.1-68.5,55.8-107.8,92.399
	C263.5,450.801,259.6,452,256,452V86.1C273.999,49.501,311.3,0,377,0C454.1,0,512,66.899,512,156z"/>
<path style="fill:#10BB67;" d="M447.499,327.499L362,413l-4.501,4.499C354.8,420.5,350.9,422,347,422s-7.8-1.5-10.499-4.501l-61-60
	c-6-5.7-6-15.3,0-21c5.7-5.999,15.298-5.999,20.999,0l50.501,49.2l15-15l64.501-64.2c5.7-5.999,15.298-5.999,20.999,0
	C453.5,312.199,453.5,321.799,447.499,327.499z"/>
<path style="fill:#32D736;" d="M362,212c-40.8,0-78.999,16.199-106,42.599c-27.599,27.599-45,65.4-45,107.401
	c0,41.999,17.401,79.799,45,107.399C283.001,495.799,321.2,512,362,512c82.8,0,150-67.2,150-150S444.8,212,362,212z"/>
<path style="fill:#10BB67;" d="M512,362c0-82.8-67.2-150-150-150v300C444.8,512,512,444.8,512,362z"/>
<path style="fill:#E1E4FB;" d="M447.499,327.499L362,413l-4.501,4.499C354.8,420.5,350.9,422,347,422s-7.8-1.5-10.499-4.501l-61-60
	c-6-5.7-6-15.3,0-21c5.7-5.999,15.298-5.999,20.999,0l50.501,49.2l15-15l64.501-64.2c5.7-5.999,15.298-5.999,20.999,0
	C453.5,312.199,453.5,321.799,447.499,327.499z"/>
<path style="fill:#C5C9F7;" d="M447.499,327.499c6-5.7,6-15.3,0-21c-5.7-5.999-15.298-5.999-20.999,0l-64.5,64.2V413
	L447.499,327.499z"/>
<g>
</g>
<g>
</g>
<g>
</g>
<g>
</g>
<g>
</g>
<g>
</g>
<g>
</g>
<g>
</g>
<g>
</g>
<g>
</g>
<g>
</g>
<g>
</g>
<g>
</g>
<g>
</g>
<g>
</g>
</svg>
